<mxfile host="app.diagrams.net" modified="2023-04-07T10:53:04.266Z" agent="Mozilla/5.0 (X11; Linux x86_64) AppleWebKit/537.36 (KHTML, like Gecko) Chrome/109.0.0.0 Safari/537.36" version="21.1.5" etag="nV4WSbH4Ekg-1v7lnGXP" type="github">
  <diagram name="第 1 页" id="OE1mBa0ASnhlncHOOF1v">
    <mxGraphModel>
      <root>
        <mxCell id="0" />
        <mxCell id="1" parent="0" />
      </root>
    </mxGraphModel>
  </diagram>
</mxfile>
